<?xml version="1.0" encoding="utf-8"?>

<!-- License Agreement at http://iconmonstr.com/license/ -->

<!DOCTYPE svg PUBLIC "-//W3C//DTD SVG 1.1//EN" "http://www.w3.org/Graphics/SVG/1.1/DTD/svg11.dtd">
<svg version="1.1" xmlns="http://www.w3.org/2000/svg" xmlns:xlink="http://www.w3.org/1999/xlink" x="0px" y="0px"
	 width="512px" height="512px" viewBox="0 0 512 512" style="enable-background:new 0 0 512 512;" xml:space="preserve">
<path id="anchor-4-icon" d="M343.84,322.343h41.396c-20,31.632-73.736,53.052-109.208,53.052V248.342h45.306v-35h-45.306
	c0-7.52,0-2.464,0-10.052c0-44.757,39.226-50.349,39.226-94.036C315.254,76.528,288.725,50,256,50s-59.254,26.528-59.254,59.254
	c0,43.688,39.226,49.279,39.226,94.036c0,7.588,0,2.532,0,10.052h-45.306v35h45.306v127.053c-35.472,0-89.208-21.42-109.208-53.052
	h41.396L78.5,267v104.686l22.514-31.961C148.981,419.659,214.252,416.145,256,462c41.748-45.855,107.019-42.341,154.986-122.275
	l22.514,31.961V267L343.84,322.343z M256,135.583c-14.518,0-26.328-11.812-26.328-26.329S241.482,82.925,256,82.925
	s26.328,11.812,26.328,26.329S270.518,135.583,256,135.583z"/>
</svg>
